<svg width="428" height="164" viewBox="0 0 428 164" fill="none" xmlns="http://www.w3.org/2000/svg">
<path d="M20.28 67.5358C20.28 71.5558 19.13 74.6458 16.84 76.7858C14.55 78.9258 11.24 79.9958 6.92 79.9958H0V55.5458H7.68C11.67 55.5458 14.77 56.5958 16.98 58.7058C19.19 60.8158 20.29 63.7558 20.29 67.5358H20.28ZM14.9 67.6758C14.9 62.4258 12.58 59.7958 7.94 59.7958H5.18V75.7158H7.4C12.39 75.7158 14.89 73.0358 14.89 67.6758H14.9Z" fill="#444444"/>
<path d="M35.38 60.9458C36.07 60.9458 36.65 60.9958 37.1 61.0958L36.72 65.8758C36.31 65.7658 35.81 65.7058 35.21 65.7058C33.58 65.7058 32.31 66.1258 31.41 66.9558C30.5 67.7958 30.05 68.9658 30.05 70.4658V79.9858H24.95V61.2858H28.81L29.56 64.4258H29.81C30.39 63.3758 31.17 62.5358 32.16 61.8958C33.15 61.2558 34.22 60.9358 35.38 60.9358V60.9458Z" fill="#444444"/>
<path d="M51.69 79.9958L50.7 77.4558H50.57C49.71 78.5358 48.83 79.2858 47.92 79.7058C47.01 80.1258 45.83 80.3358 44.37 80.3358C42.58 80.3358 41.16 79.8258 40.13 78.7958C39.1 77.7658 38.58 76.3058 38.58 74.4158C38.58 72.5258 39.27 70.9658 40.66 70.0258C42.05 69.0858 44.14 68.5658 46.94 68.4658L50.18 68.3658V67.5458C50.18 65.6458 49.21 64.7058 47.27 64.7058C45.78 64.7058 44.02 65.1558 42 66.0558L40.31 62.6158C42.46 61.4858 44.85 60.9258 47.47 60.9258C50.09 60.9258 51.9 61.4758 53.24 62.5658C54.58 63.6558 55.25 65.3158 55.25 67.5458V80.0058H51.69V79.9958ZM50.18 71.3358L48.21 71.4058C46.73 71.4458 45.62 71.7158 44.9 72.2058C44.18 72.6958 43.81 73.4458 43.81 74.4458C43.81 75.8858 44.64 76.6058 46.29 76.6058C47.47 76.6058 48.42 76.2658 49.12 75.5858C49.83 74.9058 50.18 74.0058 50.18 72.8758V71.3358Z" fill="#444444"/>
<path d="M59.78 77.6058C59.78 76.6658 60.03 75.9658 60.53 75.4858C61.03 75.0058 61.76 74.7658 62.72 74.7658C63.68 74.7658 64.36 75.0158 64.87 75.5058C65.38 75.9958 65.63 76.6958 65.63 77.6158C65.63 78.5358 65.37 79.1858 64.86 79.6958C64.35 80.2058 63.63 80.4558 62.72 80.4558C61.81 80.4558 61.06 80.2058 60.55 79.7158C60.04 79.2258 59.78 78.5158 59.78 77.6158V77.6058Z" fill="#444444"/>
<path d="M87.93 55.9858V80.0458H74.63V17.3358H92.9C101.42 17.3358 107.73 18.8858 111.82 21.9858C115.91 25.0858 117.95 29.7958 117.95 36.1158C117.95 39.8058 116.93 43.0858 114.9 45.9558C112.87 48.8258 109.99 51.0858 106.28 52.7158C115.72 66.8158 121.87 75.9258 124.73 80.0458H109.97L95 55.9858H87.92H87.93ZM87.93 45.1758H92.22C96.42 45.1758 99.53 44.4758 101.53 43.0758C103.53 41.6758 104.53 39.4758 104.53 36.4658C104.53 33.4558 103.51 31.3758 101.46 30.1158C99.41 28.8558 96.25 28.2258 91.96 28.2258H87.93V45.1658V45.1758Z" fill="#444444"/>
<path d="M148.91 80.9058C141.19 80.9058 135.15 78.7758 130.81 74.5158C126.46 70.2558 124.29 64.2158 124.29 56.4158C124.29 48.6158 126.3 42.1658 130.32 37.7758C134.34 33.3858 139.89 31.1958 146.99 31.1958C154.09 31.1958 159.04 33.1258 162.82 36.9858C166.6 40.8458 168.48 46.1758 168.48 52.9858V59.3358H137.55C137.69 63.0558 138.79 65.9558 140.85 68.0458C142.91 70.1358 145.8 71.1758 149.52 71.1758C152.41 71.1758 155.14 70.8758 157.71 70.2758C160.28 69.6758 162.97 68.7158 165.77 67.4058V77.5258C163.48 78.6658 161.04 79.5158 158.43 80.0758C155.83 80.6358 152.65 80.9158 148.91 80.9158V80.9058ZM147.07 40.4958C144.3 40.4958 142.12 41.3758 140.55 43.1358C138.98 44.8958 138.08 47.3858 137.85 50.6258H156.21C156.15 47.3958 155.31 44.8958 153.68 43.1358C152.05 41.3758 149.85 40.4958 147.07 40.4958Z" fill="#444444"/>
<path d="M216.46 32.0858V38.7358L208.95 40.6658C210.32 42.8058 211.01 45.2158 211.01 47.8758C211.01 53.0258 209.22 57.0358 205.63 59.9058C202.04 62.7758 197.06 64.2158 190.68 64.2158L188.32 64.0858L186.39 63.8758C185.04 64.9058 184.37 66.0458 184.37 67.3058C184.37 69.1958 186.77 70.1358 191.58 70.1358H199.73C204.99 70.1358 209 71.2658 211.76 73.5258C214.52 75.7858 215.9 79.1058 215.9 83.4758C215.9 89.0758 213.56 93.4258 208.89 96.5158C204.22 99.6058 197.5 101.146 188.75 101.146C182.06 101.146 176.94 99.9758 173.41 97.6458C169.88 95.3158 168.11 92.0458 168.11 87.8458C168.11 84.9558 169.01 82.5358 170.81 80.5958C172.61 78.6558 175.26 77.2658 178.75 76.4358C177.4 75.8658 176.23 74.9258 175.23 73.6258C174.23 72.3258 173.73 70.9458 173.73 69.4858C173.73 67.6558 174.26 66.1358 175.32 64.9158C176.38 63.7058 177.91 62.5058 179.91 61.3358C177.39 60.2458 175.4 58.5058 173.93 56.1058C172.46 53.7058 171.72 50.8758 171.72 47.6158C171.72 42.3858 173.42 38.3358 176.82 35.4758C180.22 32.6158 185.08 31.1858 191.4 31.1858C192.74 31.1858 194.34 31.3058 196.18 31.5458C198.02 31.7858 199.21 31.9658 199.72 32.0858H216.45H216.46ZM179.44 86.8258C179.44 88.6258 180.3 90.0458 182.03 91.0758C183.76 92.1058 186.18 92.6158 189.3 92.6158C193.99 92.6158 197.66 91.9758 200.32 90.6858C202.98 89.3958 204.31 87.6358 204.31 85.4058C204.31 83.6058 203.52 82.3558 201.95 81.6758C200.38 80.9858 197.95 80.6458 194.66 80.6458H187.88C185.48 80.6458 183.47 81.2058 181.85 82.3358C180.23 83.4658 179.43 84.9558 179.43 86.8158L179.44 86.8258ZM184.2 47.7858C184.2 50.3858 184.79 52.4458 185.98 53.9658C187.17 55.4858 188.98 56.2358 191.41 56.2358C193.84 56.2358 195.67 55.4758 196.81 53.9658C197.95 52.4458 198.53 50.3958 198.53 47.7858C198.53 42.0058 196.16 39.1158 191.41 39.1158C186.66 39.1158 184.2 42.0058 184.2 47.7858Z" fill="#444444"/>
<path d="M233.04 80.0458H219.96V32.0858H233.04V80.0458Z" fill="#444444"/>
<path d="M286.65 80.0458H273.57V52.0358C273.57 48.5758 272.95 45.9758 271.73 44.2458C270.5 42.5158 268.54 41.6458 265.85 41.6458C262.19 41.6458 259.54 42.8658 257.91 45.3158C256.28 47.7658 255.46 51.8158 255.46 57.4758V80.0358H242.38V32.0758H252.37L254.13 38.2058H254.86C256.32 35.8858 258.33 34.1358 260.89 32.9558C263.45 31.7658 266.36 31.1758 269.62 31.1758C275.2 31.1758 279.43 32.6858 282.32 35.7058C285.21 38.7258 286.65 43.0758 286.65 48.7658V80.0358V80.0458Z" fill="#444444"/>
<path d="M326.18 80.0458L323.65 73.5258H323.31C321.11 76.2958 318.84 78.2258 316.51 79.2958C314.18 80.3658 311.14 80.9058 307.4 80.9058C302.79 80.9058 299.17 79.5858 296.52 76.9558C293.87 74.3258 292.55 70.5758 292.55 65.7158C292.55 60.8558 294.33 56.8758 297.89 54.4558C301.45 52.0358 306.82 50.7058 314 50.4458L322.32 50.1858V48.0858C322.32 43.2258 319.83 40.7958 314.86 40.7958C311.03 40.7958 306.52 41.9558 301.35 44.2658L297.02 35.4258C302.54 32.5358 308.66 31.0958 315.38 31.0958C322.1 31.0958 326.75 32.4958 330.18 35.2958C333.61 38.0958 335.33 42.3558 335.33 48.0758V80.0358H326.19L326.18 80.0458ZM322.32 57.8258L317.26 57.9958C313.46 58.1058 310.62 58.7958 308.77 60.0558C306.91 61.3158 305.98 63.2258 305.98 65.8058C305.98 69.4958 308.1 71.3358 312.33 71.3358C315.36 71.3358 317.78 70.4658 319.6 68.7158C321.42 66.9758 322.32 64.6558 322.32 61.7658V57.8158V57.8258Z" fill="#444444"/>
<path d="M212.81 152.146C208.79 152.146 205.58 150.886 203.17 148.376C200.76 145.866 199.65 142.496 199.86 138.286C199.99 135.606 200.71 132.406 202.02 128.696C203.33 124.986 205.07 121.016 207.24 116.796C209.42 112.576 211.96 108.196 214.87 103.636C217.78 99.0858 220.91 94.6458 224.26 90.3258C227.61 86.0058 231.12 81.9258 234.81 78.0758C238.49 74.2258 242.19 70.8458 245.91 67.9358C249.63 65.0258 253.27 62.7158 256.86 61.0058C260.44 59.2958 263.84 58.4458 267.05 58.4458C269.06 58.4458 270.55 59.0958 271.52 60.4058C272.49 61.7158 272.91 63.3058 272.78 65.1758C272.78 65.7758 272.49 66.7658 271.93 68.1358C271.36 69.5058 270.64 71.0658 269.77 72.8058C268.9 74.5458 267.93 76.3558 266.86 78.2258C265.79 80.1058 264.73 81.8458 263.7 83.4458C262.66 85.0558 261.72 86.4558 260.89 87.6658C260.05 88.8758 259.43 89.6758 259.03 90.0758C258.49 89.8058 257.86 89.3558 257.12 88.7158C256.38 88.0758 256.02 87.4258 256.02 86.7558C256.02 86.6858 256.35 86.1358 257.02 85.0958C257.69 84.0558 258.53 82.7558 259.53 81.1758C260.53 79.6058 261.62 77.9158 262.79 76.1058C263.96 74.2958 265.07 72.5558 266.1 70.8858C267.14 69.2158 267.99 67.7358 268.66 66.4658C269.33 65.1958 269.7 64.3558 269.76 63.9558C269.49 63.8258 269.29 63.7358 269.16 63.7058C269.03 63.6758 268.82 63.6558 268.56 63.6558C266.82 63.6558 265.03 63.9758 263.19 64.6058C261.35 65.2458 259.54 66.0758 257.77 67.1158C256 68.1558 254.27 69.2758 252.6 70.4758C250.93 71.6858 249.4 72.8658 248.03 74.0358C246.66 75.2058 245.48 76.2658 244.51 77.1958C243.54 78.1358 242.85 78.8058 242.45 79.2058C239.7 81.9558 236.89 84.9958 234.01 88.3458C231.13 91.6958 228.34 95.1958 225.62 98.8458C222.91 102.496 220.33 106.226 217.89 110.046C215.44 113.866 213.27 117.596 211.36 121.246C209.45 124.896 207.93 128.396 206.79 131.746C205.65 135.096 204.98 138.136 204.78 140.886C204.65 143.366 205.05 145.136 205.99 146.206C206.93 147.276 208.87 147.816 211.82 147.816C214.97 147.816 218.1 147.276 221.21 146.206C224.32 145.136 227.42 143.796 230.5 142.186C233.58 140.576 236.63 138.806 239.64 136.866C242.65 134.926 245.6 133.116 248.48 131.446C248.75 131.516 249.08 131.636 249.48 131.796C249.88 131.966 250.28 132.166 250.69 132.396C251.09 132.636 251.44 132.896 251.74 133.196C252.04 133.496 252.19 133.846 252.19 134.246C252.19 134.646 251.92 135.016 251.39 135.346C250.85 135.676 250.45 135.916 250.18 136.046C247.9 137.856 245.16 139.716 241.94 141.616C238.72 143.516 235.4 145.246 231.95 146.786C228.5 148.326 225.09 149.596 221.71 150.606C218.33 151.606 215.37 152.116 212.82 152.116L212.81 152.146Z" fill="#A100FE"/>
<path d="M264.33 138.286C263.59 138.286 262.79 138.166 261.92 137.936C261.05 137.696 260.25 137.336 259.51 136.836C258.77 136.336 258.17 135.696 257.7 134.926C257.23 134.156 257 133.266 257 132.266C257 131.266 257.34 130.036 258 128.596C258.67 127.156 259.52 125.596 260.56 123.926C261.6 122.256 262.75 120.526 264.02 118.756C265.29 116.986 266.56 115.306 267.84 113.736C269.11 112.166 270.3 110.756 271.41 109.516C272.51 108.276 273.4 107.326 274.07 106.656H274.37C274.97 106.656 275.66 106.976 276.43 107.606C277.2 108.246 277.58 108.926 277.58 109.666C275.7 112.146 274.1 114.306 272.76 116.146C271.42 117.986 270.01 119.966 268.54 122.076C267.07 124.186 265.76 126.146 264.62 127.956C263.48 129.766 262.68 131.266 262.21 132.476C261.74 133.686 261.84 134.286 262.51 134.286C265.12 134.286 267.83 133.596 270.64 132.226C273.45 130.856 276.33 129.116 279.28 127.006C282.23 124.896 285.19 122.556 288.17 119.976C291.15 117.396 294.08 114.876 296.96 112.396C297.03 112.326 297.16 112.296 297.36 112.296C297.9 112.296 298.5 112.636 299.17 113.296C299.84 113.966 300.17 114.666 300.17 115.406C300.17 116.006 299.5 116.976 298.16 118.316C296.82 119.656 295.1 121.176 292.99 122.886C290.88 124.596 288.49 126.346 285.81 128.156C283.13 129.966 280.47 131.616 277.83 133.126C275.18 134.636 272.67 135.866 270.3 136.846C267.92 137.816 265.93 138.306 264.32 138.306L264.33 138.286ZM280.09 102.836C279.55 102.836 279.04 102.566 278.53 102.036C278.03 101.496 277.98 100.866 278.38 100.126C278.65 99.6558 279.12 98.9658 279.79 98.0658C280.46 97.1658 281.18 96.2458 281.95 95.3058C282.72 94.3658 283.47 93.4958 284.21 92.6958C284.95 91.8958 285.52 91.3558 285.92 91.0858C286.52 91.0858 287.18 91.3758 287.88 91.9358C288.58 92.5058 288.93 93.1258 288.93 93.7958C289 94.1958 288.69 94.8458 288.03 95.7558C287.36 96.6558 286.57 97.6158 285.67 98.6158C284.77 99.6158 283.88 100.526 283.01 101.326C282.14 102.126 281.5 102.636 281.1 102.836H280.1H280.09Z" fill="#A100FE"/>
<path d="M290.24 130.656C290.24 129.446 290.46 128.096 290.89 126.586C291.32 125.076 291.88 123.576 292.55 122.066C293.22 120.556 293.99 119.116 294.86 117.746C295.73 116.376 296.6 115.156 297.47 114.076C298.54 110.926 300.45 108.436 303.19 106.596C305.93 104.756 308.91 103.836 312.13 103.836C314.27 103.836 315.98 104.226 317.25 104.986C318.52 105.756 319.53 106.696 320.26 107.796C321 108.896 321.48 110.086 321.72 111.366C321.95 112.636 322.07 113.806 322.07 114.886C322.07 117.296 321.6 119.706 320.66 122.116C322.87 121.376 325.04 120.556 327.19 119.656C329.33 118.756 331.34 117.866 333.22 116.996C335.09 116.126 336.75 115.306 338.19 114.536C339.63 113.766 340.78 113.146 341.65 112.676C341.78 112.606 341.95 112.576 342.15 112.576C342.48 112.576 342.82 112.716 343.15 112.976C343.48 113.246 343.77 113.546 344 113.876C344.23 114.216 344.37 114.546 344.4 114.876C344.43 115.216 344.35 115.476 344.15 115.676C343.21 116.616 341.81 117.636 339.93 118.736C338.05 119.836 335.93 120.926 333.55 121.996C331.17 123.066 328.63 124.076 325.92 125.006C323.21 125.946 320.51 126.716 317.84 127.316C315.5 130.666 312.6 133.406 309.15 135.546C305.7 137.686 302.27 138.756 298.86 138.756C295.78 138.756 293.57 137.916 292.23 136.246C290.89 134.576 290.22 132.696 290.22 130.626L290.24 130.656ZM297.57 122.916C296.7 124.256 295.96 125.616 295.36 126.986C294.76 128.356 294.46 129.746 294.46 131.156C294.46 132.226 294.71 133.016 295.21 133.516C295.71 134.016 296.7 134.266 298.17 134.266C300.45 134.266 302.67 133.716 304.85 132.606C307.02 131.506 309.02 130.076 310.83 128.336C310.49 128.406 310.14 128.436 309.78 128.436H308.73C307.86 128.436 306.89 128.386 305.82 128.286C304.75 128.186 303.69 127.936 302.66 127.536C301.62 127.136 300.65 126.566 299.75 125.826C298.85 125.086 298.13 124.116 297.59 122.916H297.57ZM304 114.186C304 114.586 303.71 115.176 303.15 115.946C302.58 116.716 301.86 117.636 300.99 118.706C300.99 120.446 301.47 121.836 302.45 122.876C303.42 123.916 305.38 124.436 308.33 124.436C309.33 124.436 310.39 124.366 311.49 124.236C312.59 124.106 313.72 123.936 314.85 123.736C315.99 121.996 316.89 120.276 317.56 118.566C318.23 116.856 318.56 115.236 318.56 113.696C318.56 112.156 318.12 110.796 317.25 109.626C316.38 108.456 314.81 107.866 312.53 107.866C310.99 107.866 309.35 108.216 307.61 108.916C305.87 109.616 304.43 110.676 303.29 112.076C303.76 112.876 303.99 113.586 303.99 114.186H304Z" fill="#A100FE"/>
<path d="M355.12 93.9958C355.39 93.6658 355.62 93.3558 355.82 93.0958C356.02 92.8258 356.19 92.5558 356.32 92.2958C357.66 90.4858 359.11 88.3658 360.69 85.9158C362.26 83.4758 363.99 81.1458 365.86 78.9358C367.73 76.7258 369.78 74.8558 371.99 73.3158C374.2 71.7758 376.57 71.0058 379.12 71.0058C379.92 71.0058 380.76 71.1558 381.63 71.4558C382.5 71.7558 383.3 72.1758 384.04 72.7158C384.78 73.2558 385.38 73.9058 385.85 74.6758C386.32 75.4458 386.59 76.2958 386.65 77.2358L385.65 80.5458C384.38 80.2758 383.61 79.7458 383.34 78.9358C383.07 78.1358 382.94 77.2258 382.94 76.2258C382.74 76.1558 382.52 76.1258 382.29 76.1258H381.64C379.56 76.1258 377.54 76.7258 375.56 77.9358C373.58 79.1458 371.76 80.6458 370.09 82.4558C368.42 84.2658 366.88 86.1858 365.47 88.2258C364.06 90.2658 362.86 92.1258 361.85 93.7958V93.8958C363.39 93.8258 364.95 93.7958 366.52 93.7958H371.19C371.86 93.7958 372.56 93.8258 373.3 93.8958C374.04 93.9658 374.74 94.0958 375.41 94.2958C376.08 94.4958 376.65 94.8158 377.12 95.2458C377.59 95.6858 377.86 96.2958 377.92 97.1058C377.92 97.3758 377.77 97.6958 377.47 98.0558C377.17 98.4258 376.88 98.6758 376.62 98.8058C376.35 98.9358 375.36 99.0458 373.66 99.1058C371.95 99.1758 370.06 99.2258 367.99 99.2558C365.91 99.2858 363.89 99.3358 361.91 99.4058C359.93 99.4758 358.58 99.5358 357.84 99.6058C356.7 101.276 354.99 103.846 352.72 107.286C350.44 110.736 347.93 114.616 345.19 118.936C342.44 123.256 339.63 127.776 336.75 132.496C333.87 137.216 331.21 141.646 328.77 145.806C326.33 149.956 324.29 153.606 322.64 156.756C321 159.906 320.08 162.046 319.88 163.186C318.94 163.186 317.99 162.966 317.02 162.536C316.05 162.096 315.5 161.316 315.36 160.176C315.29 159.306 315.86 157.596 317.07 155.056C318.28 152.506 319.87 149.496 321.84 146.016C323.82 142.536 326.09 138.716 328.67 134.566C331.25 130.416 333.86 126.266 336.5 122.116C339.14 117.966 341.74 113.946 344.28 110.066C346.82 106.186 349.07 102.806 351.01 99.9258C348.67 99.9258 346.27 99.8758 343.83 99.7758C341.39 99.6758 339.09 99.6258 336.95 99.6258C336.35 99.6258 335.86 99.3458 335.49 98.7758C335.12 98.2058 334.94 97.6558 334.94 97.1158C334.94 96.5758 335.21 96.0658 335.74 95.5558C336.28 95.0558 336.68 94.8058 336.95 94.8058C338.49 94.6058 340.95 94.4358 344.33 94.3058C347.71 94.1758 351.31 94.0758 355.13 94.0058L355.12 93.9958Z" fill="#A100FE"/>
<path d="M381.73 93.9958C382 93.6658 382.23 93.3558 382.43 93.0958C382.63 92.8258 382.8 92.5558 382.93 92.2958C384.27 90.4858 385.72 88.3658 387.3 85.9158C388.87 83.4758 390.6 81.1458 392.47 78.9358C394.34 76.7258 396.39 74.8558 398.6 73.3158C400.81 71.7758 403.18 71.0058 405.73 71.0058C406.53 71.0058 407.37 71.1558 408.24 71.4558C409.11 71.7558 409.91 72.1758 410.65 72.7158C411.39 73.2558 411.99 73.9058 412.46 74.6758C412.93 75.4458 413.2 76.2958 413.26 77.2358L412.26 80.5458C410.99 80.2758 410.22 79.7458 409.95 78.9358C409.68 78.1358 409.55 77.2258 409.55 76.2258C409.35 76.1558 409.13 76.1258 408.9 76.1258H408.25C406.17 76.1258 404.15 76.7258 402.17 77.9358C400.19 79.1458 398.37 80.6458 396.7 82.4558C395.03 84.2658 393.49 86.1858 392.08 88.2258C390.67 90.2658 389.47 92.1258 388.46 93.7958V93.8958C390 93.8258 391.56 93.7958 393.13 93.7958H397.8C398.47 93.7958 399.17 93.8258 399.91 93.8958C400.65 93.9658 401.35 94.0958 402.02 94.2958C402.69 94.4958 403.26 94.8158 403.73 95.2458C404.2 95.6858 404.47 96.2958 404.53 97.1058C404.53 97.3758 404.38 97.6958 404.08 98.0558C403.78 98.4258 403.49 98.6758 403.23 98.8058C402.96 98.9358 401.97 99.0458 400.27 99.1058C398.56 99.1758 396.67 99.2258 394.6 99.2558C392.52 99.2858 390.5 99.3358 388.52 99.4058C386.54 99.4758 385.19 99.5358 384.45 99.6058C383.31 101.276 381.6 103.846 379.33 107.286C377.05 110.736 374.54 114.616 371.8 118.936C369.05 123.256 366.24 127.776 363.36 132.496C360.48 137.216 357.82 141.646 355.38 145.806C352.94 149.956 350.9 153.606 349.25 156.756C347.61 159.906 346.69 162.046 346.49 163.186C345.55 163.186 344.6 162.966 343.63 162.536C342.66 162.096 342.11 161.316 341.97 160.176C341.9 159.306 342.47 157.596 343.68 155.056C344.89 152.506 346.48 149.496 348.45 146.016C350.43 142.536 352.7 138.716 355.28 134.566C357.86 130.416 360.47 126.266 363.11 122.116C365.75 117.966 368.35 113.946 370.89 110.066C373.43 106.186 375.68 102.806 377.62 99.9258C375.28 99.9258 372.88 99.8758 370.44 99.7758C368 99.6758 365.7 99.6258 363.56 99.6258C362.96 99.6258 362.47 99.3458 362.1 98.7758C361.73 98.2058 361.55 97.6558 361.55 97.1158C361.55 96.5758 361.82 96.0658 362.35 95.5558C362.89 95.0558 363.29 94.8058 363.56 94.8058C365.1 94.6058 367.56 94.4358 370.94 94.3058C374.32 94.1758 377.92 94.0758 381.74 94.0058L381.73 93.9958Z" fill="#A100FE"/>
<path d="M391.97 138.286C391.23 138.286 390.43 138.166 389.56 137.936C388.69 137.696 387.89 137.336 387.15 136.836C386.41 136.336 385.81 135.696 385.34 134.926C384.87 134.156 384.64 133.266 384.64 132.266C384.64 131.266 384.98 130.036 385.64 128.596C386.31 127.156 387.16 125.596 388.2 123.926C389.24 122.256 390.39 120.526 391.66 118.756C392.93 116.986 394.2 115.306 395.48 113.736C396.75 112.166 397.94 110.756 399.05 109.516C400.15 108.276 401.04 107.326 401.71 106.656H402.01C402.61 106.656 403.3 106.976 404.07 107.606C404.84 108.246 405.22 108.926 405.22 109.666C403.34 112.146 401.74 114.306 400.4 116.146C399.06 117.986 397.65 119.966 396.18 122.076C394.71 124.186 393.4 126.146 392.26 127.956C391.12 129.766 390.32 131.266 389.85 132.476C389.38 133.686 389.48 134.286 390.15 134.286C392.76 134.286 395.47 133.596 398.28 132.226C401.09 130.856 403.97 129.116 406.92 127.006C409.87 124.896 412.83 122.556 415.81 119.976C418.79 117.396 421.72 114.876 424.6 112.396C424.67 112.326 424.8 112.296 425 112.296C425.54 112.296 426.14 112.636 426.81 113.296C427.48 113.966 427.81 114.666 427.81 115.406C427.81 116.006 427.14 116.976 425.8 118.316C424.46 119.656 422.74 121.176 420.63 122.886C418.52 124.596 416.13 126.346 413.45 128.156C410.77 129.966 408.11 131.616 405.47 133.126C402.82 134.636 400.31 135.866 397.94 136.846C395.56 137.816 393.57 138.306 391.96 138.306L391.97 138.286ZM407.74 102.836C407.2 102.836 406.69 102.566 406.18 102.036C405.68 101.496 405.63 100.866 406.03 100.126C406.3 99.6558 406.77 98.9658 407.44 98.0658C408.11 97.1658 408.83 96.2458 409.6 95.3058C410.37 94.3658 411.12 93.4958 411.86 92.6958C412.6 91.8958 413.17 91.3558 413.57 91.0858C414.17 91.0858 414.83 91.3758 415.53 91.9358C416.23 92.5058 416.58 93.1258 416.58 93.7958C416.65 94.1958 416.34 94.8458 415.68 95.7558C415.01 96.6558 414.22 97.6158 413.32 98.6158C412.42 99.6158 411.53 100.526 410.66 101.326C409.79 102.126 409.15 102.636 408.75 102.836H407.75H407.74Z" fill="#A100FE"/>
<path d="M218.41 20.3258C218.5 20.4058 218.58 20.4858 218.67 20.5658C219.45 21.2858 220.26 21.9258 221.06 22.4858C221.14 22.5458 221.22 22.5958 221.3 22.6558C221.31 22.6558 221.32 22.6758 221.34 22.6758C221.41 22.7258 221.49 22.7758 221.56 22.8258C221.58 22.8358 221.6 22.8458 221.61 22.8658C221.68 22.9158 221.75 22.9558 221.82 22.9958C221.84 23.0058 221.86 23.0258 221.89 23.0358C221.96 23.0758 222.03 23.1158 222.09 23.1558C222.11 23.1658 222.14 23.1858 222.16 23.1958C222.23 23.2358 222.29 23.2758 222.36 23.3158C222.39 23.3258 222.41 23.3458 222.44 23.3558C222.5 23.3958 222.57 23.4258 222.63 23.4658C222.66 23.4758 222.68 23.4958 222.71 23.5058C222.77 23.5458 222.84 23.5758 222.9 23.6058C222.92 23.6158 222.95 23.6258 222.97 23.6458C223.04 23.6758 223.1 23.7158 223.17 23.7458C223.18 23.7458 223.2 23.7558 223.21 23.7658C223.43 23.8758 223.64 23.9758 223.85 24.0558C223.88 24.0658 223.91 24.0858 223.95 24.0958C224 24.1158 224.05 24.1358 224.09 24.1558C224.13 24.1758 224.17 24.1858 224.21 24.2058C224.25 24.2258 224.3 24.2358 224.34 24.2558C224.38 24.2758 224.42 24.2858 224.47 24.3058C224.51 24.3158 224.56 24.3358 224.6 24.3458C224.64 24.3558 224.69 24.3758 224.73 24.3858C224.77 24.3958 224.81 24.4158 224.85 24.4258C224.89 24.4358 224.94 24.4558 224.98 24.4658C225.02 24.4758 225.06 24.4858 225.1 24.4958C225.14 24.5058 225.19 24.5158 225.23 24.5258C225.27 24.5258 225.31 24.5458 225.34 24.5558C225.38 24.5558 225.43 24.5758 225.47 24.5858C225.51 24.5858 225.54 24.5958 225.58 24.6058C225.62 24.6058 225.67 24.6258 225.71 24.6258C225.74 24.6258 225.78 24.6358 225.81 24.6458C225.86 24.6458 225.9 24.6558 225.95 24.6658C225.98 24.6658 226.01 24.6658 226.04 24.6758C226.09 24.6758 226.14 24.6758 226.19 24.6858C226.22 24.6858 226.24 24.6858 226.27 24.6858C226.34 24.6858 226.42 24.6858 226.49 24.6858C231.33 24.6858 240.3 16.2858 240.98 9.31579C241.36 5.47579 239.7 2.11579 236.09 0.575789C236 0.535789 235.91 0.505789 235.82 0.465789C235.79 0.455789 235.76 0.445789 235.74 0.435789C235.68 0.415789 235.61 0.385789 235.55 0.365789C235.52 0.355789 235.49 0.345789 235.46 0.335789C235.4 0.315789 235.34 0.295789 235.27 0.275789C235.24 0.275789 235.21 0.255789 235.19 0.255789C235.11 0.235789 235.03 0.215789 234.95 0.195789C234.95 0.195789 234.93 0.195789 234.92 0.195789C234.83 0.175789 234.74 0.155789 234.65 0.135789C234.63 0.135789 234.61 0.135789 234.59 0.125789C234.52 0.115789 234.45 0.105789 234.39 0.0857893C234.36 0.0857893 234.34 0.0857893 234.31 0.0757893C234.24 0.0757893 234.18 0.0557893 234.12 0.0457893C234.1 0.0457893 234.07 0.0457893 234.05 0.0457893C233.97 0.0457893 233.89 0.0257893 233.81 0.0257893H233.79C233.7 0.0257893 233.61 0.0157893 233.52 0.0157893H233.5C233.42 0.0157893 233.34 0.0157893 233.26 0.0157893C233.24 0.0157893 233.23 0.0157893 233.21 0.0157893C233.14 0.0157893 233.07 0.0157893 233 0.0157893C232.98 0.0157893 232.97 0.0157893 232.95 0.0157893C232.87 0.0157893 232.79 0.0257893 232.71 0.0357893C232.54 0.0557893 232.37 0.0757893 232.2 0.115789H232.18C232.1 0.125789 232.03 0.145789 231.96 0.165789C231.96 0.165789 231.94 0.165789 231.93 0.165789C231.85 0.185789 231.77 0.205789 231.69 0.225789C228.71 1.04579 226.6 3.87579 226.51 6.24579C226.37 2.82579 222.01 -1.59421 216.92 0.575789C213.3 2.11579 211.65 5.47579 212.03 9.31579C212.4 13.0858 215.18 17.2558 218.42 20.3058L218.41 20.3258Z" fill="#972DE2"/>
<path d="M236.1 0.595782C236.01 0.555782 235.92 0.525782 235.83 0.485782C235.8 0.475782 235.77 0.465782 235.75 0.455782C235.69 0.435782 235.62 0.405782 235.56 0.385782C235.53 0.375782 235.5 0.365782 235.47 0.355782C235.41 0.335782 235.35 0.315782 235.28 0.295782C235.25 0.295782 235.22 0.275782 235.2 0.275782C235.12 0.255782 235.04 0.235782 234.96 0.215782C234.96 0.215782 234.94 0.215782 234.93 0.215782C234.84 0.195782 234.75 0.175782 234.66 0.155782C234.64 0.155782 234.62 0.155782 234.6 0.145782C234.53 0.135782 234.46 0.125782 234.4 0.105782C234.37 0.105782 234.35 0.105782 234.32 0.0957819C234.25 0.0957819 234.19 0.0757819 234.13 0.0657819C234.11 0.0657819 234.08 0.0657819 234.06 0.0657819C233.98 0.0657819 233.9 0.0457819 233.82 0.0457819H233.8C233.71 0.0457819 233.62 0.0357819 233.53 0.0357819H233.51C233.43 0.0357819 233.35 0.0357819 233.27 0.0357819C233.25 0.0357819 233.24 0.0357819 233.22 0.0357819C233.15 0.0357819 233.08 0.0357819 233.01 0.0357819C232.99 0.0357819 232.98 0.0357819 232.96 0.0357819C232.88 0.0357819 232.8 0.0457819 232.72 0.0557819C232.55 0.0757819 232.38 0.0957819 232.21 0.135782H232.19C232.11 0.145782 232.04 0.165782 231.97 0.185782C231.97 0.185782 231.95 0.185782 231.94 0.185782C231.86 0.205782 231.78 0.225782 231.7 0.245782C232.65 1.76578 233.03 3.63578 232.83 5.63578C232.65 7.42578 231.91 9.32578 230.82 11.1258C230.99 11.1258 231.14 11.2158 231.23 11.3558L231.89 12.3358H234.47C234.76 12.3358 235 12.5758 235 12.8658C235 13.1558 234.76 13.3958 234.47 13.3958H231.61C231.43 13.3958 231.27 13.3058 231.17 13.1658L230.81 12.6258L230.03 13.8858C229.93 14.0458 229.76 14.1358 229.58 14.1358C229.39 14.1358 229.22 14.0358 229.13 13.8758L229.02 13.6858C225.96 17.4558 221.74 20.3658 218.95 20.3658C218.78 20.3658 218.6 20.3558 218.42 20.3358C218.51 20.4158 218.59 20.4958 218.68 20.5758C219.46 21.2958 220.27 21.9358 221.07 22.4958C221.15 22.5558 221.23 22.6058 221.31 22.6658C221.32 22.6658 221.33 22.6858 221.35 22.6858C221.42 22.7358 221.5 22.7858 221.57 22.8358C221.59 22.8458 221.61 22.8558 221.62 22.8758C221.69 22.9258 221.76 22.9658 221.83 23.0058C221.85 23.0158 221.87 23.0358 221.9 23.0458C221.97 23.0858 222.04 23.1258 222.1 23.1658C222.12 23.1758 222.15 23.1958 222.17 23.2058C222.24 23.2458 222.3 23.2858 222.37 23.3258C222.4 23.3358 222.42 23.3558 222.45 23.3658C222.51 23.4058 222.58 23.4358 222.64 23.4758C222.67 23.4858 222.69 23.5058 222.72 23.5158C222.78 23.5558 222.85 23.5858 222.91 23.6158C222.93 23.6258 222.96 23.6358 222.98 23.6558C223.05 23.6858 223.11 23.7258 223.18 23.7558C223.19 23.7558 223.21 23.7658 223.22 23.7758C223.44 23.8858 223.65 23.9858 223.86 24.0658C223.89 24.0758 223.92 24.0958 223.96 24.1058C224.01 24.1258 224.06 24.1458 224.1 24.1658C224.14 24.1858 224.18 24.1958 224.22 24.2158C224.26 24.2358 224.31 24.2458 224.35 24.2658C224.39 24.2858 224.43 24.2958 224.48 24.3158C224.52 24.3258 224.57 24.3458 224.61 24.3558C224.65 24.3658 224.7 24.3858 224.74 24.3958C224.78 24.4058 224.82 24.4258 224.86 24.4358C224.9 24.4458 224.95 24.4658 224.99 24.4758C225.03 24.4858 225.07 24.4958 225.11 24.5058C225.15 24.5158 225.2 24.5258 225.24 24.5358C225.28 24.5358 225.32 24.5558 225.35 24.5658C225.39 24.5658 225.44 24.5858 225.48 24.5958C225.52 24.5958 225.55 24.6058 225.59 24.6158C225.63 24.6158 225.68 24.6358 225.72 24.6358C225.75 24.6358 225.79 24.6458 225.82 24.6558C225.87 24.6558 225.91 24.6658 225.96 24.6758C225.99 24.6758 226.02 24.6758 226.05 24.6858C226.1 24.6858 226.15 24.6858 226.2 24.6958C226.23 24.6958 226.25 24.6958 226.28 24.6958C226.35 24.6958 226.43 24.6958 226.5 24.6958C231.34 24.6958 240.31 16.2958 240.99 9.32578C241.37 5.48578 239.71 2.12578 236.1 0.585782V0.595782Z" fill="#8B1BDB"/>
<path d="M231.3 10.0358L230.37 11.5458L228.51 8.35579C228.38 8.13579 228.13 8.00579 227.87 8.03579C227.61 8.05579 227.39 8.23579 227.31 8.47579L225.37 14.0158L223.23 10.6658C223.11 10.4858 222.92 10.3658 222.7 10.3558C222.48 10.3558 222.28 10.4458 222.15 10.6158L221.6 11.3258H216.53C216.16 11.3258 215.87 11.6258 215.87 11.9858C215.87 12.3558 216.17 12.6458 216.53 12.6458H221.93C222.14 12.6458 222.33 12.5458 222.45 12.3858L222.62 12.1658L224.98 15.8758C225.1 16.0658 225.31 16.1858 225.54 16.1858C225.57 16.1858 225.59 16.1858 225.62 16.1858C225.87 16.1558 226.09 15.9858 226.17 15.7458L228.09 10.2758L229.64 12.9358L229.78 13.1758C229.9 13.3758 230.11 13.5058 230.34 13.5058C230.57 13.5058 230.78 13.3858 230.9 13.1958L231.87 11.6258L232.32 12.2958C232.44 12.4758 232.65 12.5858 232.87 12.5858H236.46C236.83 12.5858 237.12 12.2858 237.12 11.9258C237.12 11.5658 236.82 11.2658 236.46 11.2658H233.23L232.4 10.0358C232.28 9.86579 232.09 9.75579 231.88 9.74579C231.87 9.74579 231.85 9.74579 231.84 9.74579C231.62 9.74579 231.41 9.86579 231.29 10.0558L231.3 10.0358Z" fill="#444444"/>
<path d="M218.31 2.16579C218.07 1.65579 217.47 1.43579 216.96 1.67579C216.84 1.72579 215.8 2.23579 214.81 3.38579C213.88 4.46579 212.83 6.32579 213.13 9.08579C213.19 9.60579 213.63 9.99579 214.14 9.99579C214.18 9.99579 214.21 9.99579 214.25 9.99579C214.81 9.93579 215.21 9.43579 215.15 8.87579C214.74 5.05579 217.7 3.58579 217.83 3.51579C218.34 3.27579 218.55 2.67579 218.32 2.16579H218.31Z" fill="#AD57EA"/>
<path d="M215.57 11.0258C215.38 10.5258 214.83 10.2558 214.32 10.4158C213.76 10.5858 213.46 11.2058 213.67 11.7558C213.71 11.8558 213.75 11.9558 213.79 12.0458C214 12.5258 214.53 12.7658 215.02 12.6158C215.07 12.6058 215.11 12.5858 215.15 12.5658C215.65 12.3258 215.85 11.7258 215.64 11.2158C215.61 11.1558 215.59 11.0858 215.56 11.0258H215.57Z" fill="#AD57EA"/>
</svg>
